/* XPM */
static char *b3dcb71d506446a1d97281a539d93816NreAFklCIk6AFqq3[] = {
/* columns rows colors chars-per-pixel */
"56 56 150 2 ",
"   c #44190D",
".  c #4F2012",
"X  c #542415",
"o  c #592514",
"O  c #5B2817",
"+  c #5C2A19",
"@  c #642E1B",
"#  c #66301D",
"$  c #6A321E",
"%  c #4E2F2B",
"&  c #4B3D3B",
"*  c #663221",
"=  c #6D3521",
"-  c #6F3924",
";  c #713722",
":  c #743B25",
">  c #783E27",
",  c #773E29",
"<  c #7A3F28",
"1  c #643C35",
"2  c #7D412B",
"3  c #69453C",
"4  c #7E4735",
"5  c #784738",
"6  c #7C4B3C",
"7  c #5F4C49",
"8  c #664641",
"9  c #664943",
"0  c #694B44",
"q  c #6E4F48",
"w  c #714F47",
"e  c #6A514D",
"r  c #785349",
"t  c #675654",
"y  c #7F5A52",
"u  c #75615E",
"i  c #7A615A",
"p  c #6D6467",
"a  c #696669",
"s  c #6E6A6D",
"d  c #756563",
"f  c #716E71",
"g  c #707173",
"h  c #7A7273",
"j  c #76787A",
"k  c #797B7F",
"l  c #82452D",
"z  c #87492F",
"x  c #854730",
"c  c #864932",
"v  c #8B4C32",
"b  c #814E3C",
"n  c #935337",
"m  c #815243",
"M  c #836057",
"N  c #8C645A",
"B  c #836A64",
"V  c #8B736A",
"C  c #827474",
"Z  c #887B78",
"A  c #95837E",
"S  c #7C7E81",
"D  c #768187",
"F  c #7B8287",
"G  c #7C858B",
"H  c #748991",
"J  c #798D96",
"K  c #7B8E98",
"L  c #7D929A",
"P  c #7F95A0",
"I  c #868283",
"U  c #8F8783",
"Y  c #898C8B",
"T  c #958B85",
"R  c #968E8E",
"E  c #818D93",
"W  c #81959E",
"Q  c #8E979A",
"!  c #989794",
"~  c #959698",
"^  c #8195A0",
"/  c #869BA4",
"(  c #869CA8",
")  c #8B9EA9",
"_  c #8EA2AC",
"`  c #92A5AD",
"'  c #97A8AE",
"]  c #8FA5B0",
"[  c #91A6B0",
"{  c #95AAB2",
"}  c #9AADB6",
"|  c #9AAFB8",
" . c #9DB0B7",
".. c #9DB2BB",
"X. c #ABB2B3",
"o. c #A2B5BD",
"O. c #A5B8BF",
"+. c #ABB8BD",
"@. c #A5B7C1",
"#. c #A6BAC1",
"$. c #AABDC4",
"%. c #B4BEC2",
"&. c #ADC0C7",
"*. c #AFC2C9",
"=. c #B6C0C4",
"-. c #BAC4C7",
";. c #B3C6CC",
":. c #BAC6CA",
">. c #B6C8CE",
",. c #BCC8CD",
"<. c #B6C8D0",
"1. c #BBCCD3",
"2. c #C1C9CD",
"3. c #C4CED2",
"4. c #C6D1D5",
"5. c #CBD2D6",
"6. c #C4D3D8",
"7. c #CDD6D9",
"8. c #CDDADF",
"9. c #CFDADE",
"0. c #D1D7DA",
"q. c #D2DADD",
"w. c #D4DDDF",
"e. c #D2DDE1",
"r. c #D5DDE0",
"t. c #D6E0E3",
"y. c #DEE2E3",
"u. c #DBE2E5",
"i. c #DCE2E5",
"p. c #DDE4E7",
"a. c #DEE5E9",
"s. c #E0E5E5",
"d. c #E2E7EA",
"f. c #E5EBED",
"g. c #E7EAED",
"h. c #E7EDEF",
"j. c #EAEDED",
"k. c #E8ECEE",
"l. c #ECF0F2",
"z. c #EFF1F2",
"x. c #F1F2F3",
"c. c #F4F6F6",
"v. c #F4F7F8",
"b. c #F7F8F9",
"n. c #F7F9FA",
"m. c #F8F9F9",
"M. c #F9FBFB",
"N. c #FBFCFC",
"B. c #FFFFFE",
"V. c white",
/* pixels */
"V.V.V.V.V.V.V.V.V.V.V.V.V.V.V.V.V.V.V.V.V.V.V.V.V.V.V.V.V.V.V.V.V.V.V.V.V.V.V.V.V.V.V.V.V.V.V.V.V.V.V.V.V.V.V.V.",
"V.V.V.V.V.V.V.V.V.V.V.V.V.V.V.V.V.V.V.V.V.V.V.V.V.V.V.V.V.V.V.V.V.V.V.V.V.V.V.V.V.V.V.V.V.V.V.V.V.V.V.V.V.V.V.V.",
"V.V.V.V.V.V.V.V.V.V.V.V.V.V.V.V.V.V.V.V.V.V.V.V.V.V.V.V.V.V.V.V.V.V.V.V.V.V.V.V.V.V.V.V.V.V.V.V.V.V.V.V.V.V.V.V.",
"V.V.V.V.V.V.V.V.V.V.V.V.V.V.V.V.V.V.V.V.V.n.d.u.i.e.9.6.6.t.a.h.V.V.V.V.V.V.V.V.V.V.V.V.V.V.V.V.V.V.V.V.V.V.V.V.",
"V.V.V.V.V.V.V.V.V.V.V.V.V.V.V.V.V.V.V.g.9.1.1.| 1.1.<.W W } 1.<.1.6.a.N.V.V.V.V.V.V.V.V.V.V.V.V.V.V.V.V.V.V.V.V.",
"V.V.V.V.V.V.V.V.V.V.V.V.V.V.V.V.V.g.6.1.1.1.1.&.$.1.1.6.3.1.#.;.>.1.1.1.g.V.V.V.V.V.V.V.V.V.V.V.V.V.V.V.V.V.V.V.",
"V.V.V.V.V.V.V.V.V.V.V.V.V.V.V.V.9...o.1.1.1.1.$.@.<.<.<.<.1.1.#.<.1.1.1.>.7.n.V.V.V.V.V.V.V.V.V.V.V.V.V.V.V.V.V.",
"V.V.V.V.V.V.V.V.V.V.V.V.V.V.M.6.1.1.@...;.$.o._ K ( ) ` ) [ | ( >.1.1.1.1.1.6.v.V.V.V.V.V.V.V.V.V.V.V.V.V.V.V.V.",
"V.V.V.V.V.V.V.V.V.V.V.V.V.V.6.1.1.<.$.| ( P G s 8 1 8 & 8 9 p s _ *.1.#.1.1.,.3.V.V.V.V.V.V.V.V.V.V.V.V.V.V.V.V.",
"V.V.V.V.V.V.V.V.V.V.V.V.V.u.1.1.1.<.@.{ K q = @ # @ @   @ # @ @ e G ..} ;.$.O.;.9.V.V.V.V.V.V.V.V.V.V.V.V.V.V.V.",
"V.V.V.V.V.V.V.V.V.V.V.V.l.$.;.1.<.$.| H 8 # @ $ ; ; ; X : ; = ; $ - a W W #.>.;.;.g.V.V.V.V.V.V.V.V.V.V.V.V.V.V.",
"V.V.V.V.V.V.V.V.V.V.V.V.:.o.$.;...{ S % # : > < 2 l 2 @ x l < > ; $ X 7 / >.>.$.;.>.M.V.V.V.V.V.V.V.V.V.V.V.V.V.",
"V.V.V.V.V.V.V.V.V.V.V.c.#.$...{ ^ f 1 o < < < l l x < = x l l l l l + * S &.&.;.;.;.0.V.V.V.V.V.V.V.V.V.V.V.V.V.",
"V.V.V.V.V.V.V.V.V.V.V.p.;.#.>.#.^ 8 > * < < l l l c < ; x l x l l l # , 3 ` >.>.;.;.-.V.V.V.V.V.V.V.V.V.V.V.V.V.",
"V.V.V.V.V.V.V.V.V.V.V.7.>.>.;._ D : < - < l x l 2 x 2 ; x l x l l l $ z ; s { &.&. .Q n.V.V.V.V.V.V.V.V.V.V.V.V.",
"V.V.V.V.V.V.V.V.V.V.V.>.>.;.;.{ d > < = 2 x 2 x 2 x 2 = x l x 2 l 2 = z l 4 E _ ;.;.$.h.V.V.V.V.V.V.V.V.V.V.V.V.",
"V.V.V.V.V.V.V.V.V.V.N.$.*.>.;./ 6 2 2 $ x x l l l l l , l l l l c z v n v v I ..>.;.&.u.V.V.V.V.V.V.V.V.V.V.V.V.",
"V.V.V.V.V.V.V.V.V.V.x.#.;.>.$.G l l l l v v c z c l l l x l l l x l l l l z h K ;.;.$.u.V.V.V.V.V.V.V.V.V.V.V.V.",
"V.V.V.V.V.V.V.V.V.V.x.;.} o...j < < > l l l x l l x l l l l < 2 < < = ; $ $ t } ;.;.$.u.V.V.V.V.V.V.V.V.V.V.V.V.",
"V.V.V.V.V.V.V.V.V.V.l.#.} ' ] f = = $ = : > : : : ; ; @ ; = = $ = : X : > > r  .;.$...y.V.V.V.V.V.V.V.V.V.V.V.V.",
"V.V.V.V.V.V.V.V.V.V.M.' ....( d > > < - l l l l 2 l 2 = l l l l l 2 # x l l m W ..O.} l.V.V.V.V.V.V.V.V.V.V.V.V.",
"V.V.V.V.V.V.V.V.V.V.m.;.;.;.} h > , 2 : z l l x x x 2 ; l l l l l < = l l l y  .o.;.#.c.V.V.V.V.V.V.V.V.V.V.V.V.",
"V.V.V.V.V.V.V.V.V.V.V.>.>.;...j , < l < l l l l l l l = x l l l l > l l l l B &.;.;.$.V.V.V.V.V.V.V.V.V.V.V.V.V.",
"V.V.V.V.V.V.V.V.V.V.V.:.$.;...S < < l l l z 2 l l < l ; l l x z 2 > l l l x Z ;.;.;.,.V.V.V.V.V.V.V.V.V.V.V.V.V.",
"V.V.V.V.V.V.V.V.V.V.V.6.;.&...F < < l 2 l l l x l l l = x l l x l < 2 c N l I ;.;.;.4.V.V.V.V.V.V.V.V.V.V.V.V.V.",
"V.V.V.V.V.V.V.V.V.V.V.5.#.} ] I < < x : x l l x 2 x 2 - x l l l l 2 # A X.2 F $.;.;.0.V.V.V.V.V.V.V.V.V.V.V.V.V.",
"V.V.V.V.V.V.V.V.V.V.V.r.*.;.$.W 2 < x : x l l l l x < < x x x l l 2 @ U Y V J ` ` _ g.V.V.V.V.V.V.V.V.V.V.V.V.V.",
"V.V.V.V.V.V.V.V.V.V.V.r.;.>.$./ c 2 x : x l l l l l l l x l 2 l 2 l # A 4 T { >.;.O.j.V.V.V.V.V.V.V.V.V.V.V.V.V.",
"V.V.V.V.V.V.V.V.V.V.V.i.@.*.:.) 5 > < : l x l l x 2 2 x x l 2 l 2 z # A ! M &.;.;.$.n.V.V.V.V.V.V.V.V.V.V.V.V.V.",
"V.V.V.V.V.V.V.V.V.V.V.d.@.$.o.^ 3 = : * l x l l x l 2 2 x l x < l l > l 2 y _ ;.>.$.V.V.V.V.V.V.V.V.V.V.V.V.V.V.",
"V.V.V.V.V.V.V.V.V.V.V.l.o.^ [ { 9 ; ; @ x x l l x 2 < < x x l 2 l 2 2 l l i ( { } 4.V.V.V.V.V.V.V.V.V.V.V.V.V.V.",
"V.V.V.V.V.V.V.V.V.V.V.l.;.^ ) @.w $ = + c l l l x l > < l x 2 x l 2 2 l l C &.>.;.5.V.V.V.V.V.V.V.V.V.V.V.V.V.V.",
"V.V.V.V.V.V.V.V.V.V.V.n.$.<.>.#.e $ $ + 2 l x z x l , , l x l z x v n n n R ;.;.;.r.V.V.V.V.V.V.V.V.V.V.V.V.V.V.",
"V.V.V.V.V.V.V.V.V.V.V.M.;.&.>.} i 2 l z v v v x x l 2 < l z l l l l l l l ~ >.;.&.i.V.V.V.V.V.V.V.V.V.V.V.V.V.V.",
"V.V.V.V.V.V.V.V.V.V.V.V.o.$.$.` u > : : 2 2 z 2 l l 2 2 < : : $ $ $ ; $ $ E o.o. .j.V.V.V.V.V.V.V.V.V.V.V.V.V.V.",
"V.V.V.V.V.V.V.V.V.V.V.V.,.;.;.} g + @ O @ # @ # # # + + @ $ $ $ $ X ; : : / $.#.o.V.V.V.V.V.V.V.V.V.V.V.V.V.V.V.",
"V.V.V.V.V.V.V.V.V.V.V.V.4.;.&...j # # X @ @ $ = $ = + @ $ = $ ; ; + 2 < b } >.;.;.V.V.V.V.V.V.V.V.V.V.V.V.V.V.V.",
"V.V.V.V.V.V.V.V.V.V.V.V.4.$.....k $ $ X $ $ $ = $ : @ # : : : : : O , ; w O.>.$.,.V.V.V.V.V.V.V.V.V.V.V.V.V.V.V.",
"V.V.V.V.V.V.V.V.V.V.V.V.6.......F $ @ o $ $ $ = $ $ + + $ = = = $ X = $ e O.>.>.6.V.V.V.V.V.V.V.V.V.V.V.V.V.V.V.",
"V.V.V.V.V.V.V.V.V.V.V.N.4._ ..{ F $ @ o $ $ $ $ $ $ o o $ $ $ $ $ . $ = 0 ) #.#.5.V.V.V.V.V.V.V.V.V.V.V.V.V.V.V.",
"V.V.V.V.V.V.V.V.V.V.V.l.3.;.-.;.=.7.5.5.5.5.5.5.5.5.5.5.5.5.5.5.5.5.5.5.5.$.o.%.7.x.V.V.V.V.V.V.V.V.V.V.V.V.V.V.",
"V.V.V.V.V.V.V.V.V.c.p.9.7.7.7.5.5.5.5.5.5.5.7.5.5.5.5.5.5.5.5.5.5.5.5.5.5.5.3.3.5.5.q.g.M.V.V.V.V.V.V.V.V.V.V.V.",
"V.V.V.V.V.V.V.V.V.-.L L W ^ W W W W W W W W W W W W W W W W W L W E K K W W W W L W W L 0.V.V.V.V.V.V.V.V.V.V.V.",
"V.V.V.V.V.V.V.V.V.-.L ^ W W W W W W W W W W W W W W W W W W W W W W W W W W W W W W W L 7.V.V.V.V.V.V.V.V.V.V.V.",
"V.V.V.V.V.V.V.V.V.+.H J K K K K L K W K K W K W K W K W W J W L K W W K K K H H J J H H 5.V.V.V.V.V.V.V.V.V.V.V.",
"V.V.V.V.V.V.V.V.M.5.2.2.2.2.,.2.2.2.4.3.5.2.4.3.3.3.2.2.2.4.2.5.3.3.3.3.3.2.2.2.2.2.:.2.q.v.V.V.V.V.V.V.V.V.V.V.",
"V.V.V.V.V.V.V.j.0.7.7.7.7.7.7.0.7.7.7.q.0.q.q.w.w.w.y.w.s.w.w.w.r.r.r.r.e.q.0.0.5.3.,.2.5.7.x.V.B.V.V.V.V.V.V.V.",
"V.V.V.V.V.M.q.2.2.2.4.2.3.3.5.5.5.5.4.5.2.4.3.3.3.4.2.2.2.2.2.3.3.3.5.5.7.7.5.3.3.3.3.3.3.3.5.u.B.V.V.V.V.V.V.V.",
"V.V.V.V.V.s.W W L L J K K L W W W W W W W W W W W W W W W W W W ^ W W W W W W W W W W W W W W W l.V.V.V.V.V.V.V.",
"V.V.V.V.V.y.W W W W W W W W W W W W W W W W W W L W L L W W W W W ^ W W W W W W W W W W W W J H M.V.V.V.V.V.V.V.",
"V.V.V.V.V.s.L W W W W W W W W W L L J L E W L W W L L L W J K K K K L W W K K J J J K K W W W W l.B.B.V.V.V.V.V.",
"V.V.V.V.V.M.x.x.x.x.x.x.x.x.x.x.l.c.x.x.x.x.l.x.x.x.x.x.l.z.x.x.x.x.x.x.x.x.x.l.x.x.x.l.x.x.x.x.V.V.B.B.V.V.V.V.",
"V.V.V.V.V.V.V.V.V.V.V.V.V.V.V.V.V.V.V.V.V.V.V.V.V.V.V.V.V.V.V.V.V.V.V.V.V.V.V.V.V.V.V.V.V.V.V.V.V.V.V.V.V.V.V.V.",
"V.V.V.V.V.V.V.V.V.V.V.V.V.V.V.V.V.V.V.V.V.V.V.V.V.V.V.V.V.V.V.V.V.V.V.V.V.V.V.V.V.V.V.V.V.V.V.V.V.V.V.V.V.V.V.V.",
"V.V.V.V.V.V.V.V.V.V.V.V.V.V.V.V.V.V.V.V.V.V.V.V.V.V.V.V.V.V.V.V.V.V.V.V.V.V.V.V.V.V.V.V.V.V.V.V.V.V.V.V.V.V.V.V.",
"V.V.V.V.V.V.V.V.V.V.V.V.V.V.V.V.V.V.V.V.V.V.V.V.V.V.V.V.V.V.V.V.V.V.V.V.V.V.V.V.V.V.V.V.V.V.V.V.V.V.V.V.V.V.V.V."
};
