/* XPM */
static char *_4eaa91ec6a54aea9c585973007ebc7d51nCio5JjC6W6J0v[] = {
/* columns rows colors chars-per-pixel */
"56 56 81 1 ",
"  c #1B252E",
". c #1C2731",
"X c #1E2933",
"o c #212B36",
"O c #232E39",
"+ c #26313D",
"@ c #29333E",
"# c #273340",
"$ c #2A3642",
"% c #2E3945",
"& c #2F3A48",
"* c #313B46",
"= c #323D4B",
"- c #36414E",
"; c #38434F",
": c #364251",
"> c #3A4553",
", c #3D4956",
"< c #3C4758",
"1 c #3E4A5A",
"2 c #404B57",
"3 c #414D5C",
"4 c #45515E",
"5 c #434F60",
"6 c #455161",
"7 c #445261",
"8 c #465163",
"9 c #455262",
"0 c #455362",
"q c #455263",
"w c #475461",
"e c #465364",
"r c #475465",
"t c #495362",
"y c #4A5563",
"u c #4A5663",
"i c #485464",
"p c #4A5464",
"a c #485665",
"s c #485567",
"d c #4C5765",
"f c #4B5867",
"g c #4D5865",
"h c #4D5967",
"j c #4B5768",
"k c #4B5868",
"l c #4B5969",
"z c #4E5A68",
"x c #4D596A",
"c c #4F5A6A",
"v c #4F5B6B",
"b c #4F5C6B",
"n c #4D5A6C",
"m c #505B6B",
"M c #505C69",
"N c #525D6A",
"B c #505E6F",
"V c #525F6E",
"C c #545E6F",
"Z c #525F70",
"A c #525F71",
"S c #52606D",
"D c #53606F",
"F c #536071",
"G c #566171",
"H c #546172",
"J c #546272",
"K c #566373",
"L c #566473",
"P c #576574",
"I c #566475",
"U c #596775",
"Y c #596676",
"T c #5A6777",
"R c #5A6877",
"E c #5A6778",
"W c #5B6878",
"Q c #5C6A7B",
"! c #5E6B7B",
"~ c #627081",
"^ c #627285",
/* pixels */
"*yhmVM2ssMMm>vY*in43svbFm;ssMFv:Db2vs44rDDh,ywMVv>yshMD4",
"=9ssIshvs931*s^=9im4rfDVF>b742>%b!1rry9kwIsffss41%wssLbD",
"o>33392,,>=#o2V+<32$1114M*11:$+$5r=33,=23944:1>-@o*1333f",
" @>,<Z2$*$o+%2VO=>=o%1<3Ko=%OO+-1v#:-%o-1>9y#=$o+XO=1>9M",
"X%#$=r3bL!9L3-y$=&,@@%$<k,WF4ZR==9:&-;%$%%23kFRwR4$+&#19",
".=*%=>=33Z:r>+-%11y+-*%->-3r,3ZX%=>133%-#=>=15s2y,@-%=:-",
"@mV2nK1,3!=V;o.$55s>VD,bF$1k31I XX>1s49W:9Y4:1V1943Ff5Fb",
"%3s=>2*#=>+4;%@O159>3b%13 $:$=dO&o=1941h:-3;o=>+1,14s=22",
"&1V2rf=ooO#1,+$ *12>9E>bv OoX&v.#@O-231F,4v,XXO@-23fF2M4",
"%3j1nj2$&O:34s!+*:*13Z1ZDo$$O1v>FV$=-=1n>rv4#%+%3119f9bb",
"#1n>5j2+#O&j;,D:EZV-3I-3FX+$o<v@3jsWW9,V>,9s++@$9,>eb>4Z",
"O1j=1r3vVV&n11F*5ed*3Y%1v-VV>1V=3V,999>n>:393Fm>5,:9m=3j",
"+>r-19>13D-1,1s+<>3&>V=3f$49,1y&34&1-,=s-,13=4913>&1k>19",
"O&-%>,*>=,@&%->$=%:$%<=>,+>*=$>+=:==%---%;>-=:==&%%%>:,,",
"=ksvVM=bD,hy4wrnbbw9jvVM,3Fv3rV>wkbDv4jsbDf,sR-svt,jknM4",
"=b933>$bW,y9f9swFjkwds31%>YY29F,3swLwhrj92,$9~:w9v3b951=",
"@11-$#+1j*13,%14759-,>:+X-3k-1j%-141e7:1>&@O1b&>24=1,;@o",
"X&%++$&1v$--%o=1>5v+=%O@+,3V+::++;,>k4$=%o$$1Z%&>-O=%o@$",
"-IFbn!$-2:==,$@%$13wFL9Wf->9:$1*%@$&14kI~3L4-3=:&33YF4FF",
"%39w1RX$&>124*;%=1-15r299O$-<1m=--%:1-17F>w,+-$1,b>3s,3m",
"+<9h>QXX.:15y1L43Ft-1v39yooo<3F-kF>kZ1>1!=k,+X+13v*1f13m",
" @=%$bX&+$159199*1>X&=+<3@$o:2V>3k=-1-O&>O1>$$X13sX$-+:r",
".+oX%FX$%X:<11fb9V2XOX#=yO%@$-9:1F,kk>OoO#,1@&X$13.OXO=v",
".$$O>D=bF%>:-1ww9vy+$$$142Fh%><=1k>fr4+%+&14wW*->-O%$+,s",
" +@o>F+3f9IFy>fy>9hO+$+44=3CmF!-,b-1r9+$+&w,:V>IFFo+$O2h",
"%FD4:F&1b:99w:wy=443Db:49,tZ25C;<v%,94jFF%j21F-39M2DM;3d",
"+33y>j%14&1:3&34>14=44112=33=<3->y=231>3F-1,,r%>>4%33,13",
"X:&-$>+--=&%-=&-&>:$-&=$=%=<=$-*==+:>*-&3+%%=>&&$:$>==$=",
"*sV39vhDFF2kbbMM1Fb4bf2rfVFV2mrMVb:sY3yvL,yvbIb4jvMCm2hs",
"%yrj19rbfI,b431%=FF<9k44ryFs3js93,+1Rv35R>39rVrwse92:=tm",
"O,3,#1353F$1,-@+=ww&14==3159,:2>=#X>93>3MO,315r,>1-$$O24",
"X*-=X&<:3YO-%+%$:1f#-=+@-1>k2%=%O%@199$-: @>>>V-==%@$O%:",
"$==1@##$,d1YI3CR*-1:&>=%$%%4>vZFwW1=11:$s+%$$-92bFWfF1:3",
"*13j$,:>,3=5j<3F.$%119-:,%>4=33j1k>O%=11F+,;=,2:51F,j23m",
"&19r>mj3vZ$3b,2YXXo,1j>rF>4F>:1b>v>oX+12R*Mm>dn;14I-b13M",
"+134<5d$,2.#-+=MO%o=1w,1n>=1=X&-O3-%%o11D=3s%>,@@$-$9-1r",
"X&1119F2DV.OXX&ZO=%O:1>3L2hD;oOX%,,@-@%>s:4F,Vm%+X+$3==2",
"O,2-<3j5hFo%$+<b:Fh*1,:1M,rm,@$+=4,3I2:12-1f>my-$$+-3;,>",
"-FFy:3F>3! +@O1V%3vsFI>1F>1s2o++*r::yfDZ!&3D=3b-+@O:j3Ib",
"$49h&3V*1v>LL:1M-3f>4s>,V>>91fLb=v>1h424R#1b@19,VFV-f>4V",
"+,:3&>s>1m%3e1>y=32*<:,=h;,9>:1w>3=>3<,=f$,r&14-11D-1=,w",
"@%%-%$-=:,$:*=$-#===%=&==$=:%-%=**$*&==$>$$-$:>%:$>$%---",
":kbDID4nvmVF,DE:vM4svnKIC3bnMFb,IF3Vm5jvFIbrvdFDn,mnMIFf",
"=9rrDh9j931=+e!=99d35rkkD>b93,%%VY<ijt3e9brr9ss2>@39sbsb",
"X>133d>>1>%$+1V@13,+>333m%1>-++%3s*22;*33339-1>*+o$1235t",
" +:><F,=-*@=&1V+&:*o%1:5F@:-+%%-3m$=%%+=1-ss=-=@=++%1:9n",
".*+$=s1nFYwF1&7&-=,@$$$>9,FF1DR%-3>=:2%@$*22sVLyY2$$$$12",
"o,,-29-33V>j:O&*334%1,>32-4j,4D.$$<192>4#13>24s2j<=2>>9>",
"@bs,yn:,3K=Z=OX%29y:vk>jv@,f,2D.XX>1f39F=3V2:1b,921b91b9",
"*3s==2@O&=+9=$$o15313v#1, @=+-rO=O=2931V*=>=X$-O1133y$,>",
"=5Z3CV=@OX$31*>X&1,19I,YbX+oX-b+-=+-111K-bD2OOX$>11vVsKw",
"*3s1sh>$$O:924Y%13>,3n1Mbo$$+,f-Vv-,2>1n=eh4+%#=3,19s3kk",
"$1V>2Z>O+O=V:2Z:Fvs:9I:3FX+@X1v$3nwFI21F=,9so++$9,>jh>9M",
"+1j%391DKF=n,2F$33s=1D&3r,II>1v-9V>394>V%:31sIV>e>:3h-39",
"#:9:1y>12V=1:19$,-2=>k:1r$17>19=13=>-3=j%13,:1912:=1t<33",
"XO%+=-@%#=O$+%&#$+$#+=$=:X=#$O=X$%$##$$$X%-$%$%$++$+*$=*"
};
