/* XPM */
static char *_b73305f88c340e49d4f45b16c2257dcljGcH6HsQ31qLU0F[] = {
/* columns rows colors chars-per-pixel */
"56 56 168 2 ",
"   c #18100F",
".  c #1B0E12",
"X  c #1D1212",
"o  c #231413",
"O  c #2C1212",
"+  c #251812",
"@  c #2D1C14",
"#  c #301B15",
"$  c #391F17",
"%  c #311B18",
"&  c #2F2119",
"*  c #352317",
"=  c #382216",
"-  c #3B251A",
";  c #3D2B1D",
":  c #3A2620",
">  c #3C2A24",
",  c #3D3324",
"<  c #41261D",
"1  c #422C1D",
"2  c #49291C",
"3  c #45321D",
"4  c #4B341E",
"5  c #4F391C",
"6  c #51351E",
"7  c #432B21",
"8  c #4A2E25",
"9  c #443424",
"0  c #4A3322",
"q  c #433926",
"w  c #4E3B25",
"e  c #44342A",
"r  c #4E342A",
"t  c #4E3C2B",
"y  c #533B25",
"u  c #51372C",
"i  c #513C2C",
"p  c #473B35",
"a  c #4A3D33",
"s  c #483E3D",
"d  c #54442D",
"f  c #57482F",
"g  c #5B4B2F",
"h  c #554534",
"j  c #594535",
"k  c #544A34",
"l  c #5A4C35",
"z  c #52443A",
"x  c #57483E",
"c  c #5B4C3B",
"v  c #5E5039",
"b  c #62422F",
"n  c #674733",
"m  c #624D3A",
"M  c #645232",
"N  c #63533C",
"B  c #68573A",
"V  c #67593E",
"C  c #69583D",
"Z  c #5B4D42",
"A  c #5E5242",
"S  c #5B514C",
"D  c #645544",
"F  c #695642",
"G  c #6C5E45",
"H  c #635648",
"J  c #64594A",
"K  c #695B4B",
"L  c #735E4B",
"P  c #625953",
"I  c #6C5F58",
"U  c #6E614D",
"Y  c #756545",
"T  c #73644C",
"R  c #79644C",
"E  c #7C6A49",
"W  c #6C6156",
"Q  c #6D645B",
"!  c #736551",
"~  c #7B6652",
"^  c #766A54",
"/  c #7C6B52",
"(  c #746C5A",
")  c #7B6E5C",
"_  c #7C725B",
"`  c #746D63",
"'  c #7E7560",
"]  c #77716F",
"[  c #7E7768",
"{  c #797270",
"}  c #837156",
"|  c #8B7857",
" . c #83755D",
".. c #8B7C5D",
"X. c #837664",
"o. c #827963",
"O. c #897C63",
"+. c #81786E",
"@. c #837C72",
"#. c #8D8166",
"$. c #8C8168",
"%. c #938364",
"&. c #958768",
"*. c #97886A",
"=. c #8E8877",
"-. c #918671",
";. c #938B73",
":. c #9A8D70",
">. c #9B9276",
",. c #9B937A",
"<. c #A39977",
"1. c #A59A7B",
"2. c #888380",
"3. c #8D8983",
"4. c #928D82",
"5. c #9B9384",
"6. c #97938A",
"7. c #9F998B",
"8. c #9F9994",
"9. c #A49C83",
"0. c #A49C8A",
"q. c #ACA487",
"w. c #A8A295",
"e. c #A6A29D",
"r. c #ACA59B",
"t. c #AEA89A",
"y. c #B2AC9F",
"u. c #B7B190",
"i. c #A7A3A0",
"p. c #ADAAA5",
"a. c #B3ADA3",
"s. c #B6B0A6",
"d. c #BAB4AC",
"f. c #BEBAAD",
"g. c #BAB6B3",
"h. c #BDBAB4",
"j. c #C5C2BB",
"k. c #C8C3BB",
"l. c #CBC9BF",
"z. c #C6C2C1",
"x. c #C9C6C3",
"c. c #CBCAC5",
"v. c #CFCCC9",
"b. c #D1CEC9",
"n. c #D4D1CB",
"m. c #D7D5D1",
"M. c #D9D6D3",
"N. c #DBD9D5",
"B. c #DEDDDA",
"V. c #E1DEDC",
"C. c #E3E2DD",
"Z. c #E5E4E2",
"A. c #EBEBE5",
"S. c #EAE6E8",
"D. c #EEEDEA",
"F. c #F1EFEA",
"G. c #EFF0EC",
"H. c #F3F1EE",
"J. c #F3F2F0",
"K. c #F5F4F3",
"L. c #F9F7F7",
"P. c #F9F9F6",
"I. c #F9F9F7",
"U. c #FCFCFA",
"Y. c #FCFDFD",
"T. c #FDFEFD",
"R. c #FDFDFE",
"E. c white",
/* pixels */
"E.E.E.E.E.E.E.E.E.E.E.E.E.E.E.E.E.E.E.E.E.E.E.E.E.E.E.E.E.E.E.E.E.E.E.E.E.E.E.E.E.E.E.E.E.E.E.E.E.E.E.E.E.E.E.E.",
"E.E.E.E.E.E.E.E.E.E.E.E.E.E.E.E.E.E.E.E.E.E.E.E.E.E.E.E.E.E.E.E.E.E.E.E.E.E.E.E.E.E.E.E.E.E.E.E.E.E.E.E.E.E.E.E.",
"E.E.E.E.E.E.E.E.E.E.E.E.Y.E.E.E.E.E.E.E.E.E.E.E.E.E.E.E.E.E.E.E.E.E.E.E.E.E.E.E.E.E.E.E.E.E.E.E.E.E.E.E.E.E.E.E.",
"E.E.E.E.E.E.E.E.E.E.E.U.H.b.a.r.a.N.L.E.E.E.E.E.E.E.E.E.E.E.E.E.E.E.E.E.E.E.E.E.E.E.E.E.E.E.E.E.E.E.E.E.E.E.E.E.",
"E.E.E.E.E.E.E.E.E.E.H.f.>.<.1.1.%.| 5.A.E.E.E.E.E.E.E.E.E.E.E.E.E.E.E.E.E.E.E.E.E.E.E.E.E.E.E.E.E.E.E.E.E.E.E.E.",
"E.E.E.E.E.E.E.E.E.N.X.%.9.>._ -.#.1.*.&.D.E.E.E.E.E.E.E.E.E.E.E.E.E.E.E.E.E.E.E.E.E.E.E.E.E.E.E.E.E.E.E.E.E.E.E.",
"E.E.E.E.E.E.E.U.k.R &.1.:.Q x.Z.m.w.1.%.0.U.E.E.E.E.E.E.E.E.E.E.E.E.E.E.E.E.E.E.E.E.E.E.E.E.E.E.E.E.E.E.E.E.E.E.",
"E.E.E.E.E.E.E.n.~ ~ ..1.O.S.U.E.E.I.f.*...B.E.E.E.E.E.E.E.E.E.E.E.E.E.E.E.E.E.E.E.E.E.E.E.E.E.E.E.E.E.E.E.E.E.E.",
"E.E.E.E.E.E.A.) X.O.,.:.d.Y.E.E.Y.E.G.#...d.U.E.E.E.E.E.E.E.E.E.E.E.E.E.E.E.E.E.E.E.E.E.E.E.E.E.E.E.E.E.E.E.E.E.",
"E.E.E.E.E.E.t.O.X.>.>.$.v.E.Y.E.E.E.I.$.~ 5.E.E.E.E.E.E.E.E.E.E.E.E.E.E.E.E.E.E.E.E.E.E.E.E.E.E.E.E.E.E.E.E.E.E.",
"E.E.E.E.E.C.%.>.9.-.p.z.J.E.E.E.E.U.C.#.H 4.U.E.E.E.E.E.E.E.E.E.E.E.E.E.E.E.E.E.E.E.E.E.E.E.E.E.E.E.E.E.E.E.E.E.",
"E.E.E.E.E.h.| q.;.B.E.E.E.E.U.E.E.J.7.T F 8.E.E.E.U.E.E.E.E.E.E.E.E.E.E.E.E.E.E.E.E.E.E.E.E.E.E.E.E.E.E.E.E.E.E.",
"E.E.E.U.U.a.%.5.e.E.E.E.Y.E.E.C.j.5./  ./ x.E.Y.U.E.E.U.E.E.E.E.E.E.E.E.E.E.E.E.E.E.E.E.E.E.E.E.E.E.E.E.E.E.E.E.",
"E.E.E.U.E.r.&.,.v.E.Y.E.E.Y.F.o.o.) K U H J.E.E.E.U.E.E.E.E.E.E.E.E.E.E.E.E.E.E.E.E.E.E.E.E.E.E.E.E.E.E.E.E.E.E.",
"E.E.E.E.U.s.~ O.m.E.E.E.Y.E.V.#.9.o.c J @.E.E.E.E.U.U.E.E.U.E.E.E.E.E.E.E.E.E.E.E.E.E.E.E.E.E.E.E.E.E.E.E.E.E.E.",
"E.E.U.E.U.M.R ! r.E.U.E.E.I.y./ N F i j ] U.U.U.E.E.E.E.U.E.E.E.E.E.E.E.E.E.E.E.E.E.E.E.E.E.E.E.E.E.E.E.E.E.E.E.",
"E.E.U.E.Y.E.5.R ~ a.S.L.F.f.O./ T w H K w N.U.E.E.U.U.E.E.E.U.E.E.E.E.E.E.E.E.E.E.E.E.E.E.E.E.E.E.E.E.E.E.E.E.E.",
"E.E.E.R.R.E.D.@.L R ) ^  .%...| } U d ,._ K Z.U.U.E.E.U.U.E.E.E.E.E.E.E.E.E.E.E.E.E.E.E.E.E.E.E.E.E.E.E.E.E.E.E.",
"E.E.E.E.E.R.U.D.r. ./ O.&.O.T +.g.h.W d ' ^ ! Z.U.E.E.E.E.U.U.E.E.E.E.E.E.E.E.E.E.E.E.E.E.E.E.E.E.E.E.E.E.E.E.E.",
"E.E.E.E.E.E.E.U.E.C.h.i.p.h.B.U.E.E.D.4.k $.G  .B.E.U.E.E.E.E.U.E.U.E.E.E.E.E.E.E.E.E.E.E.E.E.E.E.E.E.E.E.E.E.E.",
"E.E.E.E.E.E.U.E.E.E.U.E.U.E.E.R.E.E.Y.K.6.e D m L N.U.E.U.U.E.U.U.E.U.E.E.E.E.E.E.E.E.E.E.E.E.E.E.E.E.E.E.E.E.E.",
"E.E.E.E.E.E.E.E.E.E.U.E.E.R.R.E.E.E.E.R.L.3.: D j Y B.E.E.E.E.E.E.E.E.E.E.E.E.E.E.E.E.E.E.E.E.E.E.E.E.E.E.E.E.E.",
"E.E.E.E.E.E.E.E.E.E.E.U.R.E.E.R.Y.E.Y.E.E.K.2.> H c ^ B.U.E.U.E.E.U.E.U.U.E.E.E.E.E.E.E.E.E.E.E.E.E.E.E.E.E.E.E.",
"E.E.E.E.E.E.E.E.E.U.E.E.E.E.U.E.E.Y.E.R.E.E.K.@.7 K U _ M.E.U.E.E.U.E.E.U.E.E.E.E.E.E.E.E.E.E.E.E.E.E.E.E.E.E.E.",
"E.E.E.E.E.E.E.E.E.E.E.E.E.R.E.R.E.E.R.E.E.E.E.F.] i _ ! A M.E.E.E.U.E.E.U.E.U.E.E.E.E.E.E.E.E.E.E.E.E.E.E.E.E.E.",
"E.E.E.E.E.E.E.E.E.E.E.U.R.E.U.E.R.U.E.R.U.E.E.R.D.Q i K t Z v.Y.E.E.E.U.U.E.E.E.E.E.E.E.E.E.E.E.E.E.E.E.E.E.E.E.",
"E.E.E.E.E.E.E.E.E.E.E.E.E.E.E.R.E.R.E.E.E.R.E.E.U.S.S e n y Z m.E.E.E.E.E.E.E.U.E.E.E.E.E.E.E.E.E.E.E.E.E.E.E.E.",
"E.E.E.E.E.E.E.E.E.E.E.E.E.U.R.E.U.E.U.E.R.E.U.E.U.U.C.z 8 n 8 z c.I.E.E.E.U.U.E.E.R.E.E.E.E.E.E.E.E.E.E.E.E.E.E.",
"E.E.E.E.E.E.E.E.E.E.E.E.E.E.R.E.E.E.R.E.E.Y.E.R.E.Y.E.m.z u b u x c.Y.E.U.E.R.E.R.E.R.E.E.E.E.E.E.E.E.E.E.E.E.E.",
"E.E.E.E.E.E.E.E.E.E.E.E.E.E.E.R.E.R.E.U.U.E.R.E.Y.E.E.Y.b.a 8 m r h x.Y.E.R.E.R.E.U.R.E.E.E.E.E.E.E.E.E.E.E.E.E.",
"E.E.E.E.E.E.E.E.E.E.E.E.E.E.E.E.E.E.R.E.E.Y.U.E.E.U.U.U.E.x.e t B 0 l v.U.E.E.E.R.E.E.U.U.E.E.E.E.E.E.E.E.E.E.E.",
"E.E.E.E.E.E.E.E.E.E.E.E.E.E.E.E.E.U.E.R.Y.E.E.E.E.E.E.E.E.E.j.q d c w j l.U.R.U.E.R.E.E.E.R.E.E.E.E.E.E.E.E.E.E.",
"E.E.E.E.E.E.E.E.E.E.E.E.E.E.E.E.E.E.E.U.E.U.E.E.U.U.E.E.E.U.E.g.e l B g v j.K.E.E.U.E.E.U.U.E.U.E.E.E.E.E.E.E.E.",
"E.E.E.E.E.E.E.E.E.E.E.E.E.E.E.E.E.E.E.E.E.E.U.E.E.E.E.U.E.U.E.U.d., d Y E Y ( j.U.E.U.E.E.E.E.E.R.E.E.E.E.E.E.E.",
"E.E.E.E.E.E.E.E.E.E.E.E.E.E.E.E.E.E.E.E.U.E.U.U.U.E.U.E.E.E.E.E.U.r.4 / u. .t c B.E.U.E.U.E.U.E.E.E.E.E.E.E.E.E.",
"E.E.E.E.E.E.E.E.E.E.E.E.E.E.E.E.E.E.E.E.E.E.E.E.E.E.U.E.U.E.U.U.E.I.w.V ' j 1 9 h.U.E.U.E.E.U.E.E.U.E.E.E.E.E.E.",
"E.E.E.E.E.E.E.E.E.E.E.E.E.E.E.E.E.E.E.E.E.E.U.E.E.U.E.U.E.E.E.E.U.U.Z.k * @ $ 2 c n.U.E.U.U.E.E.E.R.E.E.E.E.E.E.",
"E.E.E.E.E.E.E.E.E.E.E.E.E.E.E.E.E.E.E.E.E.E.E.E.U.E.U.E.E.U.U.E.E.E.U.4.& . ; w > c m.U.E.E.E.U.E.U.R.E.E.E.E.E.",
"E.E.E.E.E.E.E.E.E.E.E.E.E.E.E.E.E.E.E.E.E.E.E.E.E.U.E.E.E.E.U.E.U.U.E.J.e.8.O - 1 3 c b.E.E.E.U.R.E.U.E.E.E.E.E.",
"E.E.E.E.E.E.E.E.E.E.E.E.E.E.E.E.E.E.E.E.E.E.E.E.E.E.E.U.U.E.E.U.E.E.E.U.U.D.p o % 9 w z N.U.U.E.E.R.E.R.E.R.E.E.",
"E.E.E.E.E.E.E.E.E.E.E.E.E.E.E.E.E.E.E.E.E.E.E.E.E.E.U.E.E.U.U.E.E.U.E.E.H.@.- +   ; d 3 Z N.U.E.E.R.E.R.E.U.E.E.",
"E.E.E.E.E.E.E.E.E.E.E.E.E.E.E.E.E.E.E.E.E.E.E.E.E.E.E.E.E.E.E.E.E.E.E.J.=.3 - ; o   * 3 ; Z B.E.E.E.R.E.E.E.U.E.",
"E.E.E.E.E.E.E.E.E.E.E.E.E.E.E.E.E.E.E.E.E.E.E.E.E.E.E.E.U.E.E.U.U.U.E.6.q > > ; - o X = t w A B.E.E.E.E.R.E.E.E.",
"E.E.E.E.E.E.E.E.E.E.E.E.E.E.E.E.E.E.E.E.E.E.E.E.E.E.E.E.E.U.E.U.E.U.U.h.q 9 q q 9 # X X = 3 4 H Z.I.E.E.E.R.E.E.",
"E.E.E.E.E.E.E.E.E.E.E.E.E.E.E.E.E.E.E.E.E.E.E.E.E.E.E.E.E.E.E.E.A.d.N.( , , , q 3 2 < O X 7 4 5 J Z.E.E.U.E.E.E.",
"E.E.E.E.E.E.E.E.E.E.E.E.E.E.E.E.E.E.E.E.E.E.E.E.E.E.E.E.E.E.E.J.[ l f k d , , , 9 y 6 y - o y y 4 Q H.E.E.E.E.E.",
"E.E.E.E.E.E.E.E.E.E.E.E.E.E.E.E.E.E.E.E.E.E.E.E.E.E.E.E.E.E.E.L.8.M l l l k q , q w 0 r e.s O 2 c ` I.E.E.E.E.E.",
"E.E.E.E.E.E.E.E.E.E.E.E.E.E.E.E.E.E.E.E.E.E.E.E.E.E.E.E.E.E.E.E.I.e.j.v V v d t 9 9 Z b.E.C.P O p x.E.E.E.E.E.E.",
"E.E.E.E.E.E.E.E.E.E.E.E.E.E.E.E.E.E.E.E.E.E.E.E.E.E.E.E.E.E.E.E.E.U.E.n.Y F d ] z.P B.U.E.U.A.p.Z.E.E.E.E.E.E.E.",
"E.E.E.E.E.E.E.E.E.E.E.E.E.E.E.E.E.E.E.E.E.E.E.E.E.E.E.E.E.E.E.E.E.E.E.N.Y V v H.Y.Y.U.E.U.E.E.E.E.E.E.E.E.E.E.E.",
"E.E.E.E.E.E.E.E.E.E.E.E.E.E.E.E.E.E.E.E.E.E.E.E.E.E.E.E.E.E.E.E.E.E.E.H.[ V C h.U.E.E.Y.E.U.E.E.E.E.E.E.E.E.E.E.",
"E.E.E.E.E.E.E.E.E.E.E.E.E.E.E.E.E.E.E.E.E.E.E.E.E.E.E.E.E.E.E.E.E.E.E.E.G.#.W C.U.E.U.E.E.E.E.E.E.E.E.E.E.E.E.E.",
"E.E.E.E.E.E.E.E.E.E.E.E.E.E.E.E.E.E.E.E.E.E.E.E.E.E.E.E.E.E.E.E.E.E.E.E.E.I.K.E.U.E.E.Y.E.E.E.E.E.E.E.E.E.E.E.E.",
"E.E.E.E.E.E.E.E.E.E.E.E.E.E.E.E.E.E.E.E.E.E.E.E.E.E.E.E.E.E.E.E.E.E.E.E.E.E.E.E.E.E.Y.E.E.E.E.E.E.E.E.E.E.E.E.E.",
"E.E.E.E.E.E.E.E.E.E.E.E.E.E.E.E.E.E.E.E.E.E.E.E.E.E.E.E.E.E.E.E.E.E.E.E.E.E.E.E.Y.E.E.E.E.E.E.E.E.E.E.E.E.E.E.E.",
"E.E.E.E.E.E.E.E.E.E.E.E.E.E.E.E.E.E.E.E.E.E.E.E.E.E.E.E.E.E.E.E.E.E.E.E.E.E.E.E.E.E.E.E.E.E.E.E.E.E.E.E.E.E.E.E."
};
