/* XPM */
static char *_05bcd4cbc44421becae5363df4ef8bagy4zs0LG2zHDASoh[] = {
/* columns rows colors chars-per-pixel */
"56 54 243 2 ",
"   c #0E1416",
".  c #1E303A",
"X  c #192734",
"o  c #423D3A",
"O  c #283645",
"+  c #334B51",
"@  c #3D5361",
"#  c #484C56",
"$  c #525A59",
"%  c #5F5361",
"&  c #6B5C6B",
"*  c #6E707B",
"=  c #5F5A65",
"-  c #A73C6D",
";  c #B7386F",
":  c #B73972",
">  c #A22C60",
",  c #CC3D7A",
"<  c #C63878",
"1  c #D4377D",
"2  c #AA4874",
"3  c #BC447B",
"4  c #B64D7B",
"5  c #B94779",
"6  c #B7527E",
"7  c #92697B",
"8  c #C6467C",
"9  c #D4467D",
"0  c #577485",
"q  c #D83B83",
"w  c #CD3D83",
"e  c #E33F84",
"r  c #B65683",
"t  c #A75C83",
"y  c #877B89",
"u  c #9A7487",
"i  c #BE628A",
"p  c #BD6591",
"a  c #A86D8B",
"s  c #C44C83",
"d  c #CC4A83",
"f  c #CC4987",
"g  c #D34483",
"h  c #DB4585",
"j  c #D44B84",
"k  c #DA4A86",
"l  c #DE4389",
"z  c #D24C89",
"x  c #DD4D8C",
"c  c #D14689",
"v  c #CD5285",
"b  c #CB548A",
"n  c #C8598A",
"m  c #D4538C",
"M  c #DC538D",
"N  c #D4598D",
"B  c #D65588",
"V  c #DC5391",
"C  c #DC5992",
"Z  c #D35C93",
"A  c #D55492",
"S  c #E34487",
"D  c #E4458B",
"F  c #EA468C",
"G  c #E44C8D",
"H  c #EB4C8E",
"J  c #F24C8D",
"K  c #E3528D",
"L  c #E7528B",
"P  c #E54D91",
"I  c #EC4D92",
"U  c #E94B96",
"Y  c #F24D93",
"T  c #F24F99",
"R  c #FA4E94",
"E  c #E45492",
"W  c #EC5293",
"Q  c #E25A94",
"!  c #EA5996",
"~  c #EC549A",
"^  c #EB5B9B",
"/  c #E5579B",
"(  c #F25195",
")  c #F35399",
"_  c #F5599C",
"`  c #F9559B",
"'  c #C1638E",
"]  c #D3648D",
"[  c #CA6495",
"{  c #C96995",
"}  c #D66896",
"|  c #C8769B",
" . c #D3749B",
".. c #E9649D",
"X. c #E2719D",
"o. c #F65AA1",
"O. c #D978A2",
"+. c #CB7AA3",
"@. c #E968A2",
"#. c #F168A4",
"$. c #E978AB",
"%. c #F977B0",
"&. c #6F8087",
"*. c #958E9C",
"=. c #A78A99",
"-. c #B4889F",
";. c #9292A7",
":. c #B696A9",
">. c #B184A1",
",. c #92A6B1",
"<. c #ACADB7",
"1. c #E4809C",
"2. c #C689A6",
"3. c #D485AB",
"4. c #DD8CB2",
"5. c #DA8BB4",
"6. c #DD95B4",
"7. c #D39BB4",
"8. c #DA9AB5",
"9. c #DE96BA",
"0. c #DB9DBB",
"q. c #D496B4",
"w. c #C795AE",
"e. c #E585AC",
"r. c #E789B4",
"t. c #F789B9",
"y. c #E695BB",
"u. c #ED94BB",
"i. c #E49BBD",
"p. c #EC9BBC",
"a. c #E494B4",
"s. c #F797BA",
"d. c #C6AAB9",
"f. c #DBA4BB",
"g. c #DCAABD",
"h. c #D3A7B9",
"j. c #E2A2BC",
"k. c #E2AABD",
"l. c #E9A2BE",
"z. c #AFB7C6",
"x. c #BBB8CB",
"c. c #B8B1CA",
"v. c #DC9FC0",
"b. c #EB9CC2",
"n. c #EA9AC1",
"m. c #FE96C4",
"M. c #F39CC5",
"N. c #FE9DCB",
"B. c #F897C4",
"V. c #FF8AC2",
"C. c #DCACC2",
"Z. c #DCABC9",
"A. c #C6B8CF",
"S. c #DCB3C3",
"D. c #DAB7CA",
"F. c #CBBBD2",
"G. c #DFBAD3",
"H. c #C9ADC4",
"J. c #EBA2C2",
"K. c #E3ACC2",
"L. c #EBABC4",
"P. c #ECABCA",
"I. c #E6A7C7",
"U. c #F4ACC4",
"Y. c #FEA5CA",
"T. c #F4ADCD",
"R. c #FCAACD",
"E. c #FAA9C3",
"W. c #E3B5C6",
"Q. c #ECB4C6",
"!. c #EBB4CB",
"~. c #E3BBCC",
"^. c #EDB9CC",
"/. c #E4B7C9",
"(. c #F4B4CB",
"). c #FCB4CD",
"_. c #F4BACD",
"`. c #FBBACD",
"'. c #F2B6C6",
"]. c #FEADD3",
"[. c #FBA9D5",
"{. c #E3BCD4",
"}. c #EDBCD2",
"|. c #EAB9D4",
" X c #F5B5D2",
".X c #FDB5D3",
"XX c #F4BCD3",
"oX c #FCBAD3",
"OX c #FFB3DA",
"+X c #F5BDD8",
"@X c #FEBCDC",
"#X c #F4B7D9",
"$X c #ECAFD0",
"%X c #FFB9E8",
"&X c #D8C3D6",
"*X c #D4CAD4",
"=X c #FAC6CB",
"-X c #E9C5D7",
";X c #FBC3DC",
":X c #F4CBDD",
">X c #F4C5D8",
",X c #E9D0DC",
"<X c #FDD6DF",
"1X c #DFCEE0",
"2X c #FFC4E2",
"3X c #FECBE5",
"4X c #FFC4EA",
"5X c #FFCCEC",
"6X c #F5CEE3",
"7X c #ECD6E5",
"8X c #FCD2E5",
"9X c #FDD3EB",
"0X c #FDDCED",
"qX c #F4D9E8",
"wX c #FFCCF4",
"eX c #FFDDF4",
"rX c #FFDDFD",
"tX c #FFD5F7",
"yX c #EBCBE0",
"uX c #DEE5EF",
"iX c #E9E7EF",
"pX c #FCE3ED",
"aX c #F7E3EF",
"sX c #FFE3F3",
"dX c #FFEAF5",
"fX c #FFE4FD",
"gX c #FFECFD",
"hX c #E7F7FB",
"jX c #FBFEF5",
"kX c #FFF4FE",
"lX c #F6FEFE",
"zX c #FEFEFA",
"xX c #FFFAFF",
"cX c #FAFFFF",
"vX c #FFFFFD",
"bX c #FEFFFD",
"nX c #FFFDFF",
"mX c #FFFEFF",
"MX c white",
"NX c #FEFFFF",
"BX c #FEFDFD",
"VX c #FEFDFE",
"CX c #F8F6F7",
/* pixels */
"zXzXzXzXjXzXzXkXkXgXkXkXvXcXkXxXvXxXrXV.M < h t.2XgXxXvXxXvXxXvXxXvXvXvXvXlXjXvXvXvXvXcXvXcXvXvXvXvXvXvXvXvXvXvX",
"vXCXlXvXvXxXkXfXI.q.3.q.6XkXgXgXkXfX5.5 K W K d r I.kXvXxXvXvXvXxXxXxXvXvXvXzXxXvXvXvXvXvXvXvXvXvXvXvXvXvXvXvXvX",
"lXvXxXxXkXgXe.> : z z z 5 { 5XrXrX%Xv C x W I W C ' K.kXxXvXxXvXvXcXvXvXvXvXvXlXvXvXvXvXvXvXvXvXvXvXvXvXvXvXvXvX",
"vXvXxXkXgXt ; ~ o.I T T ~ V r r 4 v h _ H W ( H W f 3.gXkXvXxXxXcXcXcXvXxXzXvXvXvXvXvXvXvXvXvXvXvXvXvXvXvXvXvXvX",
"vXvXxXkX%X- C U I _ I P ~ U c c x E F Y Y F I ` H M O.rXgXkXkXxXlXlXlXvXzXxXxXzXvXvXvXvXvXvXvXvXvXvXvXvXvXvXvXvX",
"cXvXxXkX5.: / T W W W E U U x U q ` Y ` T U T I P l $.Y.| :.9XkXvXcXcXvXxXzXxXvXvXvXvXvXxXvXvXcXvXvXvXvXvXvXvXvX",
"zXCXvXgXn.: o.T J ! M B C P l P D U I P T P ` F W D 1 k C 3 r OXgXvXvXvXzXxXvXvXvXvXvXvXvXvXvXvXvXvXvXvXvXvXvXvX",
"jXzXkXkX[.3 U U K B } e.] s z q G ) W I G I P I P W H ` W ) 9 6 3XgXxXvXvXzXxXvXcXvXvXxXvXvXvXvXvXvXvXvXvXvXvXvX",
"jXjXvXkXwX2 C C ' 5XkXkXkXwXe.f W H I ( H W W H H Y ( W W G W : y.gXxXvXvXvXvXvXvXvXvXxXvXcXvXvXvXvXvXvXvXvXvXvX",
"jXzXxXkXfX+.A [ P.kXkXxXiXyXrXr.g W W M M M K W G W E E ..Q W k { 3XxXvXcXcXvXvXcXvXvXvXvXvXvXvXvXvXvXvXvXvXvXvX",
"CXzXkX0XrXwXn n #XkXvXlXx.*.0.n.n v N Z ] } } M K B ] $.m.t.! M 5 OXkXvXcXcXvXvXvXvXvXvXvXcXvXvXvXvXvXvXvXvXvXvX",
"vXxXkX-.9.tXV.s 3.gXxXhX<.= >.%Xu.e.s.].]..X[.s.X.} t.].OXN...C - T.kXvXcXvXjXvXvXvXxXvXvXvXvXvXvXvXvXvXvXvXvXvX",
"cXxXgX!.6 N %.m [ rXkX*X&.;.:.+X.XOXoX.X)..X)..Xs.u..X@X[.m...Q 2 U.kXvXcXvXxXvXcXvXvXxXvXvXvXvXvXvXvXvXvXvXvXvX",
"lXvXkXgX| n 8 b r $XeXy * CXS.XX_._.XXoX).).).).oX.X.XR.Y.m...m 4 %XkXvXvXvXvXjXvXcXvXvXvXvXvXvXvXvXvXvXvXvXvXvX",
"cXvXvXkXdXw.2.| w.0X1X% y ,X=X_.>X'.^.'.).`.`._._.=XXX(.U.t.! j { 9XkXxXxXxXvXvXcXcXxXxXvXcXvXvXvXvXvXvXvXvXvXvX",
"cXvXcXxXkXkXdXgXgXkXc.& 7 >X^.^.S.D.d.:.h.Q.'._._.^.^.'.R.$.k 8 b.gXvXvXvXxXxXvXvXvXvXvXvXvXvXvXvXvXvXvXvXvXvXvX",
"vXvXvXvXvXkXkXdXsXdXd.% 7.+XXXF.c.,.,.;.y u C./.=X^._..Xt...v  .9XxXxXvXvXvXxXxXvXvXvXvXvXxXvXxXvXvXxXvXvXcXcXcX",
"xXxXvXvXvXxXdXD.S.>X7.C.2XXX{.*Xz.0 @ 0 uX<.u }.oX_.).Y.#.x M N.sXkXxXvXlXcXvXxXxXxXcXxXvXxXvXxXvXvXxXvXvXvXvXcX",
"vXvXcXcXcXxXkXg.>Xg.^.^.}.-XuX<.@ X . z.vX,X7 L.p.Y.m.$.V I D C $.6XkXvXcXcXvXxXkXkXkXvXvXkXxXvXvXvXvXxXxXvXvXvX",
"jXcXvXvXvXxXCXh.}._. XXX{.qXuX= O . $ <.xX{.a O.] N v k P ~ U ! 3 3.sXxXxXkXkXeX5X2X>XyXeXkXkXkXvXlXvXvXvXxXkXxX",
"lXvXcXvXvXvXkX-XS.XX(._.}.qXhX,.X @ o $ *XC.{ : L L L W ) ) U ~ A { tXkXgX2Xb.O.s 5 5 6 { p.;XkXvXlXcXvXvXvXxXvX",
"vXvXvXxXvXcXxXgX-X_.;XL._.7XuX,.X     o u 6.s ~ ( J J J J H U / c @.wXfXI.' 3 , S G E x 8 ; ' #XkXcXcXvXvXvXvXxX",
"xXxXxXxXxXxXvXxXxXdXXX(.+X>X&X* @ O # =.P.[ V ~ J R ( I ( ( ) E 3 N.%Xu.s c ^ E W Y P H ~ W j 4 9XxXvXvXvXcXvXxX",
"zXjXvXxXvXvXvXvXcXdXg.^.+X}.|.D.c.*.w.J.N.z E T J J T H ( ! K 9 } %Xr.s x ) G I H R I I H ( R ; L.kXxXxXcXlXvXxX",
"zXvXvXvXvXvXcXvXvXxX<XD./.!.+XXX%XP.[.n.$.w / ~ W ( W W W x d [ [.B.V M E V ( J Y ( ( ( H H H d 3.gXkXvXxXcXvXvX",
"vXvXvXvXvXcXcXvXzXkXxXpX:X/.XXXX(.[.N.b c w x D ( L G E @.} e.2XOX[ x P E E ( ( Y Y W ( E W Y j +.fXfXdXgXkXkXxX",
"vXvXcXcXcXvXvXvXxXxXxXkXkXsX3X;XK.).t.z V x S H F ( l Z [.5XgXfXe.C x E E W H Y ( ( J W W H Y S $.].t.O.4.].kXkX",
"vXvXlXlXcXcXvXvXzXxXjXzXvXxXgXXXQ.%XN.E x E L S ( I ~ A $XgXgX@X} h ~ W d E h S H ( W W K W J F M B j j d 2 5.gX",
"vXcXcXcXvXvXvXvXxXzXzXxXvXxX0XK.).r.#.Q G K H ( W J ( k O.U.3Xa.m W k f t.t.K H ( ( J ! W K H G G G W E Q C 5 [.",
"vXvXvXcXvXvXvXvXvXcXzXlXvXkX~.T.s.8 j L H ! L H W L ( 9 $.l.L.O.C d N N.rX$.M W H ( I J W K W H ( J ! W G ! 8 ^ ",
"vXvXvXvXvXvXvXcXvXjXzXzXlXpXK..Xr.8 W I L J L L x E 9 ] =X=XU.p.n { #XfX4X[ x W W ( ( J Y J W J H Y W P ~ / I 1 ",
"vXvXvXvXxXxXvXvXcXcXjXxXxXqXf.].t.8 ! W J ! 9 8 d Z  .U.<X=X_.(.5.4XgXkXP.[ E W H ! I ( Y J H H ( F W W P E I 1 ",
"jXzXjXvXvXxXvXvXxXzXvXxXkX,XK.@X[.} 8 L ! #.s.s.a.P.{.{.3X-XF.F.Z.fXkXkXP.' ! Y Y R T J Y ( J ! W W W L E E ~ q ",
"cXcXvXzXvXzXvXxXvXvXvXvXkX:XI.oX.XN.} 8 9 v  .a.oX>XF.A.{.-Xx.x.H.eXkXkX5Xr M ( Y T ( T H I ! J W H G W x W ^ , ",
"vXvXvXvXcXlXlXlXcXvXkXkXkX;Xf.@X X@Xs.s.e.O.r.U. X|.A.c.G.&Xx.x.D.0XxXxXgX| j H T T I D D S J J ( Y Y H ( E b t.",
"xXxXkXxXxXvXvXxXkXkXeX>X!.j.i..XoX`.=X`.[.R..X.XoX|.G.F.{.-XF.F.F.dXxXxXkX3X4 d W G l l P P e J R J Y H ( M r rX",
"kXxXkXkXeX6X>X|.!.C.I.b.i.y.i.i..XoX`.`..XOX).).).!.|.-XXX+X{.D.-XkXvXvXxXgX2X{ : q U U ~ P q I Y Y Y H W 5 XXkX",
"9X{.Z.Z.I.P.b.y.n.i.a.u.n.M.9.q.j.L.`.`..XOX.XoXoXP.$X XoXoX.X!.8XxXkXvXxXkXgXwXz < q 1 q l q U I Y R H C OXgXvX",
"J.0.0.v.9.y.n.M.n.n.b.M.M.r.0.XXXXQ.'.`.)..XXX_.K.j.a.b.).)..XL.k.<XkXvXvXxXkXb.C D U U F F U T T I G g @.5XkXkX",
"[.n.v.n.n.M.B.n.n.v.b.i.5.P.9XeX/.'.`.U.K.C.g./.:XXX8.6.E.R.oX(.).k.qXvXvXxXeXp x ) T T T Y ( Y I F W k Z { fXxX",
"fXC.J.b.p.n.n.p.u.b.q.C.6XfXfX-X!.`.`.'.:XfXdXgXkXgX8X7.a.p.(..X.X.XC.dXvXkXJ.n / I T T Y J J H Y ( P ! K s 9.gX",
"kX9Xw.i.J.J.p.i.9.0.>XdXkXkX0Xg.XX`.).(.sXxXxXxXvXkXkX:X8.6.U..X.XoX/.-XdXkX5.N E ~ Y J H F ( H ( I W W I M ' fX",
"xXdXsXq.6.J.i.8.-XdXgXvXkXkXK.).oX`.(._.kXvXxXvXxXvXxXgXW.q.i.'.XX XXXK.aXkX4.N E ( Y Y ( L L ! I ~ ~ W R G ' fX",
"vXxXkXsXf.f.}.fXgXxXvXcXdX-XU.)..X`./.:XxXxXvXxXxXxXxXxX<Xg.7.L..X(.OXL.-XgXOXr C ( R T H L W G q q g W R G | gX",
"vXxXxXkXkXdXkXkXxXvXlXxXpXh.`.).).(./.sXvXvXvXcXvXvXcXvXkX{.8.a.T..X.X`.g.sXfX| g W I ( ! G K h F D l , K 3 2XgX",
"vXcXvXlXvXxXxXvXvXvXkXkX/.Q.`..X.X!.{.kXxXvXlXlXvXcXcXcXxXqXJ.r.E.).`.oXK.>XgX5X6 f ~ ~ H J H Y 1 F I , s b.gXxX",
"zXlXvXvXxXcXxXvXvXkXkX~.W.=X`._.oXQ.-XxXvXvXvXzXzXkXcXlXxXfXT.r.s.).'._.(.g.0XgX2Xp f U I ~ I T J Y q d 3.fXxXxX",
"cXvXcXcXvXcXvXvXvXkX0Xg.XX`.`._._./.7XxXxXxXvXzXxXxXcXvXxXgXP.a.l.`._._.oXg.sXkXkXfX5.s 3 < x S T T ~ 3 I.kX0XxX",
"vXvXvXcXvXvXvXxXxXdXW.'.`.`.'.=X^.S.kXxXvXvXxXvXvXxXvXvXkXkX Xy.l.)..X_.oXk.8XxXxXxXgXgX2X@X[.8 E ~ z } fXrX=.kX",
"vXvXvXvXvXvXvXxXjX,Xk.'.`.`.`.^.^.:XxXxXxXxXvXvXvXzXvXcXvXgXP.4.p.).oX_..Xk.>XCXxXcXcXxXkXgXJ.n W G #.%X4Xa w.gX",
"vXvXvXvXvXvXvXkX<Xh._.oX`._._.^.D.dXvXxXvXcXvXvXlXxXcXvXvXqX0.a.l.).oXoX`.Q.W.dXvXvXcXvXxXkX;Xi C ) F H s 2 3XgX",
"vXvXvXvXvXvXvXxX&XD.>X_.oX_.>X/.~.kXxXvXvXvXvXxXvXxXvXcXxX-X7.6.l.). X.XoX`.g.pXkXvXcXcXxXxXgXi.6 8 x , 4 3.gXxX",
"vXvXvXvXvXvXxXkXD.d.g.j.I.g.h./.0XxXxXvXxXvXcXvXvXvXcXjXvXaX+X6.T.OXoX.XoX_.f.pXxXxXjXvXcXvXxXgX9X$X6.8.5XgXxXxX",
"cXvXvXvXvXvXxXxXkXkX0X0X9XeXgXkXkXxXxXvXcXvXcXvXzXxXvXlXvXxXeXI.a.J.K.k.j.j.k.sXxXkXvXcXcXvXxXvXkXkXgXkXxXvXxXvX"
};
