/* XPM */
static char *fd0cc6f0d74043ded59ff8fb173a7242mncANM9iBFth3xnc[] = {
/* columns rows colors chars-per-pixel */
"56 56 145 2 ",
"   c #495155",
".  c #46575F",
"X  c #4B555B",
"o  c #4D595E",
"O  c #525B5F",
"+  c #475D66",
"@  c #4C5C63",
"#  c #4B5F68",
"$  c #525E63",
"%  c #4F6067",
"&  c #4C626B",
"*  c #536167",
"=  c #54646B",
"-  c #59666B",
";  c #52696F",
":  c #5B686E",
">  c #4A6671",
",  c #4D6974",
"<  c #536771",
"1  c #556B73",
"2  c #5B6D74",
"3  c #596F78",
"4  c #577077",
"5  c #5E7077",
"6  c #57727B",
"7  c #5C737C",
"8  c #60696C",
"9  c #636E73",
"0  c #647176",
"q  c #6A7277",
"w  c #62747B",
"e  c #6A767B",
"r  c #67797F",
"t  c #6E787C",
"y  c #5F7781",
"u  c #5E7983",
"i  c #637780",
"p  c #647B84",
"a  c #6A7D85",
"s  c #657E88",
"d  c #727D82",
"f  c #678086",
"g  c #6B8187",
"h  c #67818B",
"j  c #6C838C",
"k  c #738186",
"l  c #788387",
"z  c #73848C",
"x  c #79858B",
"c  c #79888E",
"v  c #6E8691",
"b  c #6F8893",
"n  c #708790",
"m  c #748B94",
"M  c #7A8C93",
"N  c #758E99",
"B  c #798F98",
"V  c #7A9096",
"C  c #75909B",
"Z  c #7C939C",
"A  c #7D96A1",
"S  c #7F99A4",
"D  c #828E93",
"F  c #839096",
"G  c #83959C",
"H  c #89969B",
"J  c #85999E",
"K  c #8B999F",
"L  c #8097A0",
"P  c #849AA3",
"I  c #8B9DA3",
"U  c #869EA8",
"Y  c #8A9FA8",
"T  c #929EA3",
"R  c #8DA0A5",
"E  c #87A0A9",
"W  c #8CA3AB",
"Q  c #91A1A7",
"!  c #93A5AC",
"~  c #99A6AC",
"^  c #9CA9AE",
"/  c #8FA6B1",
"(  c #91A7B1",
")  c #94ACB4",
"_  c #9AADB5",
"`  c #9AAFB8",
"'  c #9CB0B6",
"]  c #9CB2BA",
"[  c #A1AFB5",
"{  c #A3B0B6",
"}  c #A3B5BC",
"|  c #A9B7BD",
" . c #A5B8BF",
".. c #ABB9BE",
"X. c #A3B7C0",
"o. c #A6B9C1",
"O. c #ABBDC4",
"+. c #AABDC5",
"@. c #ACBFC6",
"#. c #ADBFC7",
"$. c #AFBFC8",
"%. c #B0BFC5",
"&. c #ADC0C7",
"*. c #AFC1C7",
"=. c #AEC1C8",
"-. c #AEC1C9",
";. c #AFC2C9",
":. c #B1C0C6",
">. c #B0C1C9",
",. c #B3C3CB",
"<. c #B5C4CA",
"1. c #B5C6CB",
"2. c #B2C5CC",
"3. c #B3C5CD",
"4. c #B3C6CD",
"5. c #B4C6CD",
"6. c #B6C6CD",
"7. c #B5C6CE",
"8. c #B4C7CE",
"9. c #B7C7CF",
"0. c #B6C8CF",
"q. c #B9C8CF",
"w. c #B9CACF",
"e. c #B7CAD0",
"r. c #B8C9D1",
"t. c #B9C9D1",
"y. c #B8CAD1",
"u. c #B9CAD1",
"i. c #B9CAD2",
"p. c #BACBD3",
"a. c #BDCCD3",
"s. c #BBCCD4",
"d. c #BDCDD4",
"f. c #BDCED6",
"g. c #BFD0D7",
"h. c #BFD0D8",
"j. c #C0CFD6",
"k. c #C1D1D7",
"l. c #C2D1D8",
"z. c #C1D2D9",
"x. c #C3D2D8",
"c. c #C4D2D8",
"v. c #C4D3D9",
"b. c #CAD9DE",
"n. c #CEDDE0",
/* pixels */
"] 5.0.4.4.4.5.4.4.e.4.4.4.e.T ) $.z.f.d.8.;./ e i.e.t.d.f.l.v.v.,.( v O.O.d.t.r.r.y.t._ j  .*.4.4.y. ...1.4.4.C ",
") ] e.4.4.*.4.0.4.4.4.4.4.i.a A ) O.f.i.8.O.U ! e.i.y.5.t.5.t.d.y.` a t.t.y.t.t.y.t.y.$.M >.*.4.q.1.J I R { q.b ",
") ) ] e.0.1.4.*.4.4.r.4.=.` 3 m ) ) =.e.,.O.L Y i.f.i.i.,.t.6.t.t.5.i O.t.t.t.r.r.r.t.} M q.=.4.>.Q R R R J R h ",
"/ ) ) ` X.o.1.O.4.4.4.O.` S 1 n ` ) ) f.y.O.M ! z.z.z.d.y.r.6.t.r.t.M ` t.t.t.t.` ` ,.O.i 4.=.O.! R R R R R I m ",
"Z ) ) ) ) ) ` *.,.$.X.) ] m < n ) ) ] 5.5.o.i P c.c.v.v.v.j.d.r.y.5.B O.e.0.=.] ) ) X.4.$ $.O.o.R R R R I R J f ",
"6 ) ) / ) ) ) ` X.` ) ) ` s $ i ) ) ) O.>.P $ z l.v.v.v.v.v.v.d.y.y.I  .o.` W P S W ) O.* W o.] J J Z J M j g 5 ",
"X n ) ) ) ( W E P A B s , #   @ y m N B v 2   a _ Y A P ! o.O.o.) P r N y & > & & 1 U ) : * w 7 6 6 6 6 6 4 %   ",
"  * z V v & % + . @ X + 9 H ~ _ O.O.$.| _ ~ I c a $ $ < p 7 w z m v r $             1 p w a c m r ; * R V ! } J ",
"e 1.d.k.f.e.! $ ! z.v.d.f.i.y.y.y.e.y.i.p.y.y.y.j.w l t.j.l.z.v.z.b.v.y.Q * o p U S S S W ] X.$.;.) O y.d.5.} Z ",
") 1.y.g.f.z.z.O.I y.y.y.r.r.t.r.y.d.i.i.y.y.y.d.$.3 ! y.$.O.O.>.=.=.4.4.d.>.= W ) ` ) ) ] 4.4.r.4.e.K d.i.} ) 7 ",
"X.4.y.k.d.h.d.h.j O.t.t.r.r.t.y.i.t.d.,.6.y.y.y.o.i P t.*.O.5.5.*.=.O.=.*.=.2 ) ) ) ) ] h.f.i.i.y.d.{ y.4.) Y @ ",
"] e.y.g.h.h.h.s.a ( t.t.r.r.t.e.t.t.] ) _ ` =.y.t.a B t.O.=.5.5.4.5.>.=.1.] p ) ) ) ] e.f.h.z.f.g.g.*.y.y.} P # ",
"/ 0.s.g.g.g.v.e.j o.r.r.r.r.e.,.O.) ) ) ) ) ] O.y.P j *.=.=.4.e.5.0.5.4.e.) s ] =.=.s.h.f.f.f.f.d.h.! t.t.t.W # ",
"W 1.y.g.h.y.=.` w $.t.t.$.X.) ( ( U E W ) ) ) ] <.) g ` O.=.4.4.y.5.4.4.y.Y y $.4.e.4.e.e.f.f.z.z.e.I y.t.5.` & ",
"Z ] h.g.g.4.4.] 2 N A N j s 7 y , > > > > h Y / } W s } O.4.4.e.:.:.4.,.e.A 7 ] 4.4.=.e.,.y.z.d.d.=.: y.t.r.O.# ",
"j / ] g.s.0.4.) 2 d L Z Y ~ [ { ! I q   : < i a p p v O.=.5.5.y.J P I O.f.N & u / ] ) X.O.` v.d.z.!   O.t.r.O.7 ",
"p ) ) o.y.4.,.) = t.t.y.j.c.l.v.j.j.o.2 E =.$.` ( } L q.=.4.q._ R R I J R N   X 5 g m Z Z U } y.O.9   >.,.o.$.v ",
"7 / ) ) y.5.=.W l t.t.t.t.p.d.v.v.O.( s A ) $.e.d.y.Q q.=.4._ I R R I R R n F O... .' z = 2 j G G D T [ _ H e O ",
"w ) ) ) 6.t.$.A P d.t.t.5.t.5.5.d.d.[ p u ) ` $.y.y.I >.O.o.T W R I I I J g  .=.=.5.4.d.c _ y.y.p.v.v.v.j.v.=.P ",
"9 / ) ) O.4.O.a P t.d.5.t.t.r.O.5.t.y.a + P ) ) p.y.! ! 1.O.R H I R R J Z g ..=.O.=.O.=.! >.y.q.t.y.5.d.j.j.( E ",
"@ C ( ) ] ] N # P c.c.j.q.t.6.,.5.5.t.m # Z ) o.p.q._ a N m g g y 7 6 3 3 @ O.=.O.*.&.1.U =.y.y.t.t.5.5.e.y.d.W ",
"  X & 6 y s j : Y v.l.c.v.p.t.t.t.5.t.G & A } y.p.t.[   X $ 1 7 7 3 < =     U ) o.O.O.4.Z 4.v.k.y.5.5.q.e.0.y.} ",
"a 1.o. .6.r.O.s M l.c.l.v.v.v.j.t.t.6.D & U r.y.p.y.! D O.4.e.z.v.v.v.d._ < U ) ) o.=.&.j q.k.v.v.j.p.p.0.0.4.o.",
"T y.e.y.>.] ( v z c.l.c.j.v.v.v.t.t.t.I # ( t.t.q.p.I O.y.y.e.y.5.y.d.4.} a o.) ) o.O.} 7 >.v.k.v.v.v.j.0.0.0.*.",
"_ i.t.$.` ) Z & s j.j.y.j.d.v.v.v.d.$.I < O.r.t.t.p.a O.k.j.j.<.t.6.,.t.t.M =.O.o.O.O.] : O.v.j.j.c.v.v.c.j.t.6.",
"O.y.l.` ) ) 7 X 9 P s p p m Y _ ( L v 3 s O.t.t.q.z.X O.v.v.j.v.l.f.y.r.4.Z O.O.O.O.O.]   W Y m m P ( o.o._ P N ",
"%.y.y.5.) ) > X $ d M M z 3 < # a d = X v ! ( Y $.p.  ' t.O.%.q.l.d.z.t.O.M [ $.=.] ` P     $ @ = 2 i w i i 2 $ ",
"%.d.y.y.4.) p # O.p.j.l.$.= c 5.d.z.t._ 9         2 9 c c M z 7 < w 2 = 2 @ 2 b b N N :         M j.j.d.d.d.t.I ",
"} y.r.t.5.} v < 5.5.t.t.>.2 O.4.f.f.v.d.l.d o.O.$.d.y.y.t.y.p.y.y.H : H ! ~ [ O.4.o.^ I d X X o M 4.*.=.$.O.$.=.",
"! r.r.t.y.$.B = d.j.5.y.e.N $.4.f.z.z.f.z.o.( t.y.y.y.y.y.O.>.y.j.B m z.t.t.t.y.e.e.y.y.d.f.l.,.n 1.=.4.5.5.=.o.",
"d d.t.t.y.5.U = d.v.l.d.y.L $.,.f.f.f.f.d.O.L t.t.t.>.O.] ) ) ] $.] p t.t.y.5.i.t.t.y.t.y.y.y._ w o.$.4.e.4.5.] ",
"e j.y.y.y.y.W i $.6.d.v.5.P O.6.f.z.f.z.n.] c ( Y B N j p 7 j Y ( ` m d.>. .) ) $.t.t.t.y.y.y.g i O.1.t._ } >.) ",
"9 6.} Z M I j 5 2 4 7 a 7 a  .e.f.h.f.h.y.] $ M P T [ O.....[ ~ M $ ( 5.] ) ) ) ) ] O.>.5.y.p.G z 4.4...R R I J ",
"  8 ^  . . .} { } | { _ K 0 ] y.h.d.h.5.=.( d p.y.j.j.v.j.v.v.d.^ < !  .( L j y i v N Z W ` ` M : =.o.I I R R m ",
"  ~ c.<.0.0.4.4.1.4.e.d.b.M W ] z.z.y.4.5.U W y.t.p.y.p.t.l.v.` Y w 2 a L z 2 @ @ @ @ X o # i w   ] _ J G Z V r ",
"  d.5.5.4.4.4.4.0.1.4.e.b.m S ) o.s.s.4.O.P ] y.t.y.5.y.t.t.j.y.` 2 ( y.l.l.d.y._ 9       : 2 q 0 5 i g 6 1 *   ",
"D d.4.4.4.4.4.4.4.4.4.5.e.I B ) ) 5.e.4.O.G ) p.y.y.y.q.5.5.t.p.$.m $.>.f.f.l.f.d.:.  ..z.d.d.q.y.y.z.z.d.y.} : ",
"T o.e.4.4.=.0.4.4.e.4.4.5.I C ) ) ` d.5.O.m ` v.v.j.5.q.t.5.t.t.t.L O.5.f.z.f.z.v...q b.a.y.0.0.5.e.q.q.d.v.n.Z ",
"W ` ] 5.r.4.5.>.4.4.4.=.] i B ] ) ] 5.5.O.i } z.v.v.j.d.p.5.t.5.5.m ` 5.f.f.j.y.=.) Q v.4.4.0.0.4.4.4.5.4.5.b.I ",
"m ) ) ) ) ) X.=.4.O.] ` P 1 N ) ) ` 5.5.] 2 Q z.l.v.v.v.j.p.t.5.5.a Z ) >.f.i.5.=.U O.y.4.4.4.5.5.5.5.4.5.y.z.G ",
"X P ) ( ) ) ` ` ) W U Z p # w ( ) ) O.o.b @ Y v.v.v.z.v.v.v.y.y.0.l b ) ) X.s.4.*.Z d.5.4.4.4.5.4.4.e.;.e.e.d.W ",
"X X 2 2 < # < d D P H x 9 $ o 7 m m m j =   Z v.5.o.y.d.v.v.v.y.O.g m ` ) ] 5.4.O.Y z.4.4.4.4.4.4.e.;.e.;.4.4.} ",
"G [ ^ _ } t.d.t.i.y.e.y.d.y.y.$._ $ o       i h p p u s L Y Z m s = 2 U ) )  .] m Y O.y.4.4.4.5.4.4.e.4.e.e.4.o.",
"} y.t.y.e.y.y.y.y.y.i.i.y.y.y.p.5.:   e d d l D D G x 3 @ @ 9 G G F F G G J G d X Y ) >.4.4.1.1.4.4.4.4.4.4.e.W ",
"M y.y.y.r.r.r.r.y.y.t.y.d.y.y.d.` a >.y.4.=.4.1.,.4.r.r.O.M 5.k.0.0.e.0.4.e.s.z.- E ) ) =.y.5.4.=.4.e.4.4.4.o.s ",
"w } t.y.r.r.r.y.e.f.O.` ` <.y.i.o.s ` >.O.4.4.5.4.,.=.$.5.v >.5.4.4.4.4.4.4.4.e.! J ` ) ) ] } =.=.=.4.4.O.` W u ",
"2 o.t.5.e.i.r.e.t.] ) ) ) ` O.r.e.s U *.*.5.1.y.O.$.4.4.o.i 4.5.4.0.4.0.5.4.1.1.} j ) ) ) ) ) ) X.4.;.X.` ) P y ",
"2 5.y.y.4.$.O.} ) ) ) ) ) ) ) O.y.G } =.=.4.O.! I I Y ! ! 7 Z o.=.4.4.*.*.O. .) ) 2 E ) ( ) ) ) ) X.] ) ) ` N 1 ",
"- _ _ ] ) Y L Z C p u f N E ) ] ;.P c :.*.' R E Y I I I M 1 y U W ] o.] ) ) ) ) n   3 ( ) ! W W W J Z m p , + o ",
"= N v 1 2 7 7 7 7 < % . + 6 C S P Z X w 2 2 7 7 7 < < = o       X = = @ & 1 9 *       @ < & & + & 2 2 2 =       ",
"  8 | q.y.e.e.y.g.e.w.q.1.R o X a F F k O   - Q [ [ _ ~ ..:.y.a.e.y.y.d.j.y.y.O.o.O.T   t $.k.d.s.y.d.d.g.:.c X ",
"  T b.j.f.i.e.e.4.g.w.g.x.v.w ! q.g.g.g.a.^ O ] t.t.y.r.y.y.y.y.y.y.y.a.y.d.y.y.y.z.Y = ` y.>.>.5.*.=.5.1.0.d. .",
"  ..h.4.4.r.4.4.4.4.4.4.g.v.m *.4.f.z.z.g.v.} p } t.t.r.e.e.y.y.d.y.=.] ) ` o.<.e.d.) 2 Y e.&.O.4.=.=.O.O.=.O.*.",
"  z.4.4.5.4.4.4.4.4.4.q.4.d.P *.4.f.d.f.g.d.*.a t.t.r.r.4.$.$.O.o.) ) ) ) ) ) ] } 5.y.a Z 4.@.=.4.4.e.>.=.=.5.] ",
"t z.4.4.4.4.5.5.4.4.4.0.0.g.P  .4.i.g.d.h.b. .w A W A G m a s s i 6 & & 3 7 m P W ( } B m O.O.=.4.e.4.0.0.4.e.W ",
"~ y.4.4.4.4.4.4.4.4.4.2.4.q.I ] 5.d.d.z.y.=.' $ I ! ! [ | } | [ [ G X     $ d Y I t = # v ] $.4.4.4.y.4.4.4.e.S "
};
